<!DOCTYPE svg PUBLIC "-//W3C//DTD SVG 1.1//EN" "http://www.w3.org/Graphics/SVG/1.1/DTD/svg11.dtd">

<!-- Uploaded to: SVG Repo, www.svgrepo.com, Transformed by: SVG Repo Mixer Tools -->
<svg height="800px" width="800px" version="1.1" id="Layer_1" xmlns="http://www.w3.org/2000/svg" xmlns:xlink="http://www.w3.org/1999/xlink" viewBox="0 0 512 512" xml:space="preserve" fill="#000000" stroke="#000000">

<g id="SVGRepo_bgCarrier" stroke-width="0"/>

<g id="SVGRepo_tracerCarrier" stroke-linecap="round" stroke-linejoin="round"/>

<g id="SVGRepo_iconCarrier"> <path style="fill:#4A5A67;" d="M0,256.006C0,397.402,114.606,512.004,255.996,512C397.394,512.004,512,397.402,512,256.006 C512.009,114.61,397.394,0,255.996,0C114.606,0,0,114.614,0,256.006z"/> <path style="fill:#444A54;" d="M511.308,273.918c-0.347-0.355-68.974-69.017-69.529-69.529 c-8.903-9.015-21.433-14.723-35.398-14.723h-93.61c-36.258,0-40.173,23.174-40.173,33.139c0,2.704,1.379,4.994,3.381,6.509 c0.464,0.611,17.857,18.137,18.105,18.387h-15.756c-0.224-0.222-0.501-0.421-0.737-0.638c-0.502-0.544-45.617-45.663-46.182-46.182 c-5.802-6.279-15.671-11.215-32.515-11.215h-94.599c-26.618,0-47.467,20.471-47.467,46.608v39.452 c0,13.441,5.573,25.317,14.549,33.748c0.526,0.544,200.098,200.131,200.65,200.651c0.405,0.419,0.816,0.826,1.232,1.232 C400.669,502.869,502.499,401.237,511.308,273.918z"/> <g> <path style="fill:#F6F6F6;" d="M406.38,189.666h-93.61c-36.259,0-40.173,23.174-40.173,33.138c0,4.583,3.716,8.299,8.299,8.299 c4.582,0,8.299-3.716,8.299-8.299c0-4.947,0-16.541,23.575-16.541h93.61c17.753,0,32.194,13.461,32.194,30.011v39.452 c0,16.549-14.442,30.011-32.194,30.011h-93.61c-23.575,0-23.575-11.594-23.575-16.541c0-4.583-3.716-8.299-8.299-8.299 c-4.582,0-8.299,3.716-8.299,8.299c0,9.964,3.915,33.138,40.173,33.138h93.61c26.902,0,48.793-20.909,48.793-46.608v-39.452 C455.172,210.575,433.282,189.666,406.38,189.666z"/> <path style="fill:#F6F6F6;" d="M231.104,280.896c-4.583,0-8.299,3.716-8.299,8.299c0,4.947,0,16.541-23.911,16.541h-94.598 c-17.599,0-30.869-12.902-30.869-30.011v-39.452c0-17.108,13.27-30.011,30.869-30.011h94.598c23.911,0,23.911,11.594,23.911,16.541 c0,4.583,3.716,8.299,8.299,8.299c4.582,0,8.299-3.716,8.299-8.299c0-9.965-3.947-33.138-40.51-33.138h-94.597 c-26.619,0-47.467,20.471-47.467,46.608v39.452c0,26.137,20.848,46.608,47.467,46.608h94.598c36.563,0,40.51-23.174,40.51-33.138 C239.403,284.612,235.686,280.896,231.104,280.896z"/> <path style="fill:#F6F6F6;" d="M156.414,256c0,4.583,3.716,8.299,8.299,8.299h182.575c4.583,0,8.299-3.716,8.299-8.299 c0-4.583-3.716-8.299-8.299-8.299H164.713C160.13,247.701,156.414,251.417,156.414,256z"/> </g> </g>

</svg>
